<svg width="200" height="200" viewBox="0 0 200 200" fill="none" xmlns="http://www.w3.org/2000/svg">
<rect width="200" height="200" rx="100" fill="black"/>
<path d="M93.8 52.4H106.9V129.9C106.9 133.633 106.433 136.433 105.5 138.3C104.567 140.167 102.967 141.6 100.7 142.6C98.3667 143.533 95.4333 144.133 91.9 144.4C88.4333 144.733 84.2667 144.867 79.4 144.8C79.2 143.667 78.8333 142.333 78.3 140.8C77.7667 139.333 77.1667 137.833 76.5 136.3C75.9 134.767 75.2667 133.467 74.6 132.4C76.8 132.467 79 132.533 81.2 132.6C83.4 132.667 85.3667 132.7 87.1 132.7C88.8333 132.633 90.0667 132.6 90.8 132.6C91.8667 132.6 92.6333 132.4 93.1 132C93.5667 131.6 93.8 130.9 93.8 129.9V52.4ZM117.8 78.7L129.6 74.3C132.333 79.0333 134.967 84.1 137.5 89.5C140.1 94.8333 142.367 100.1 144.3 105.3C146.3 110.433 147.733 115.1 148.6 119.3L135.4 124.5C134.733 120.433 133.5 115.8 131.7 110.6C129.967 105.333 127.867 99.9333 125.4 94.4C123 88.8 120.467 83.5667 117.8 78.7ZM67.6 75.4L81.2 77.7C80.0667 82.6333 78.7 87.9 77.1 93.5C75.5 99.0333 73.6 104.333 71.4 109.4C69.2667 114.4 66.8 118.767 64 122.5C63 121.767 61.7667 121 60.3 120.2C58.9 119.4 57.4667 118.667 56 118C54.6 117.267 53.3333 116.667 52.2 116.2C54.9333 112.8 57.3 108.767 59.3 104.1C61.3667 99.3667 63.1 94.5 64.5 89.5C65.9 84.4333 66.9333 79.7333 67.6 75.4Z" fill="url(#paint0_linear_0_1)"/>
<defs>
<linearGradient id="paint0_linear_0_1" x1="100" y1="39" x2="100" y2="160" gradientUnits="userSpaceOnUse">
<stop stop-color="#372AC3"/>
<stop offset="1" stop-color="#999999"/>
</linearGradient>
</defs>
</svg>
